<svg width="56" height="59" viewBox="0 0 56 59" fill="none" xmlns="http://www.w3.org/2000/svg">
<path d="M52.4647 35.3407L52.5796 35.3974C55.2515 36.8692 56.2858 40.181 54.878 42.8417C49.9939 52.0409 40.1683 58.3247 28.8774 58.2398C13.1334 58.1266 0.233603 45.5024 0.00376275 29.991C-0.254807 13.9702 12.8461 0.921387 29.0785 0.921387C38.2434 0.921387 46.4314 5.11058 51.7464 11.6491L41.3462 17.197C38.0135 13.9985 33.388 12.0737 28.3315 12.2718C19.0517 12.6398 11.5819 20.1974 11.467 29.3683C11.3521 39.0487 19.2816 46.9176 29.0498 46.9176C35.83 46.9176 41.7197 43.153 44.6501 37.6052C46.1441 34.8312 49.6779 33.8122 52.4647 35.3407Z" fill="#5669FF"/>
<path d="M54.9642 16.5174C56.2571 19.0083 55.3377 22.0653 52.8382 23.424L46.4602 26.9055L30.6587 35.5387C28.1879 36.8973 25.0851 36.218 23.4187 33.9536L23.3613 33.8686C21.3789 31.1796 22.2408 27.3584 25.2287 25.7733L41.375 17.1685L51.7752 11.6206C52.9819 13.1491 54.0449 14.7908 54.9642 16.5174Z" fill="#00F8FF"/>
</svg>
