<svg width="22" height="22" viewBox="0 0 22 22" fill="none" xmlns="http://www.w3.org/2000/svg">
<ellipse cx="10.614" cy="6.67137" rx="4.37986" ry="4.37986" stroke="#807A7A" stroke-width="1.5" stroke-linecap="round" stroke-linejoin="round"/>
<path fill-rule="evenodd" clip-rule="evenodd" d="M3.66664 17.1426C3.66546 16.8347 3.73432 16.5306 3.86801 16.2532C4.28754 15.4142 5.47061 14.9695 6.4523 14.7681C7.1603 14.617 7.87807 14.5161 8.60028 14.466C9.93739 14.3486 11.2822 14.3486 12.6193 14.466C13.3415 14.5166 14.0592 14.6176 14.7673 14.7681C15.749 14.9695 16.9321 15.3722 17.3516 16.2532C17.6205 16.8186 17.6205 17.475 17.3516 18.0404C16.9321 18.9214 15.749 19.3241 14.7673 19.5171C14.0602 19.6745 13.3421 19.7782 12.6193 19.8276C11.531 19.9198 10.4377 19.9367 9.34704 19.8779C9.09532 19.8779 8.852 19.8779 8.60028 19.8276C7.8802 19.7789 7.16492 19.6751 6.46069 19.5171C5.47061 19.3241 4.29593 18.9214 3.86801 18.0404C3.73501 17.7598 3.66622 17.4531 3.66664 17.1426Z" stroke="#807A7A" stroke-width="1.5" stroke-linecap="round" stroke-linejoin="round"/>
</svg>
