<svg width="26" height="26" viewBox="0 0 26 26" fill="none" xmlns="http://www.w3.org/2000/svg">
<path d="M13.0005 5.05643C14.8632 5.0282 16.6646 5.7119 18.0267 6.96407L21.6955 3.42959C19.3417 1.25661 16.2259 0.0650651 13.0005 0.104462C10.5905 0.103914 8.22797 0.763867 6.17696 2.01052C4.12596 3.25717 2.46738 5.04136 1.38672 7.16358L5.59047 10.3791C6.10448 8.83926 7.09614 7.49724 8.42559 6.54228C9.75505 5.58733 11.3552 5.06761 13.0005 5.05643Z" fill="#E43E2B"/>
<path d="M25.4801 13.1973C25.4954 12.3169 25.4031 11.4378 25.2051 10.5791H13.0001V15.3328H20.1651C20.0292 16.1662 19.7236 16.964 19.2667 17.678C18.8098 18.3921 18.211 19.0078 17.5064 19.488L21.6089 22.6185C22.8874 21.4023 23.8929 19.9355 24.5604 18.3127C25.2278 16.69 25.5424 14.9473 25.4839 13.1973H25.4801Z" fill="#3B7DED"/>
<path d="M5.60543 15.4451C5.3212 14.6297 5.17467 13.774 5.17168 12.9119C5.17686 12.0511 5.31814 11.1965 5.59043 10.3786L1.38668 7.16309C0.47492 8.94651 0 10.9156 0 12.9125C0 14.9093 0.47492 16.8784 1.38668 18.6619L5.60543 15.4451Z" fill="#F0B501"/>
<path d="M13.0004 25.7199C16.167 25.8082 19.2476 24.698 21.6091 22.6177L17.5066 19.4872C16.1764 20.3658 14.6011 20.8135 13.0004 20.768C11.3565 20.7583 9.7575 20.239 8.43013 19.2836C7.10275 18.3282 6.11443 16.9853 5.60536 15.4453L1.40161 18.6621C2.47936 20.7833 4.13522 22.5671 6.18375 23.8137C8.23229 25.0602 10.5926 25.7203 13.0004 25.7199Z" fill="#2BA24C"/>
</svg>
