<svg width="26" height="27" viewBox="0 0 26 27" fill="none" xmlns="http://www.w3.org/2000/svg">
<path d="M13.0005 5.86405C14.8632 5.83581 16.6646 6.51952 18.0267 7.77169L21.6955 4.2372C19.3417 2.06422 16.2259 0.872682 13.0005 0.91208C10.5905 0.911531 8.22797 1.57148 6.17696 2.81813C4.12596 4.06479 2.46738 5.84898 1.38672 7.97119L5.59047 11.1867C6.10448 9.64688 7.09614 8.30486 8.42559 7.3499C9.75505 6.39494 11.3552 5.87523 13.0005 5.86405Z" fill="#E43E2B"/>
<path d="M25.4801 14.0049C25.4954 13.1245 25.4031 12.2454 25.2051 11.3867H13.0001V16.1404H20.1651C20.0292 16.9738 19.7236 17.7716 19.2667 18.4857C18.8098 19.1997 18.211 19.8154 17.5064 20.2956L21.6089 23.4261C22.8874 22.21 23.8929 20.7431 24.5604 19.1204C25.2278 17.4976 25.5424 15.7549 25.4839 14.0049H25.4801Z" fill="#3B7DED"/>
<path d="M5.60543 16.2527C5.3212 15.4374 5.17467 14.5816 5.17168 13.7195C5.17686 12.8588 5.31814 12.0041 5.59043 11.1862L1.38668 7.9707C0.47492 9.75412 0 11.7232 0 13.7201C0 15.717 0.47492 17.6861 1.38668 19.4695L5.60543 16.2527Z" fill="#F0B501"/>
<path d="M13.0004 26.5276C16.167 26.6158 19.2476 25.5057 21.6092 23.4253L17.5067 20.2948C16.1765 21.1734 14.6012 21.6211 13.0004 21.5756C11.3566 21.566 9.75756 21.0466 8.43019 20.0912C7.10281 19.1358 6.11449 17.7929 5.60542 16.2529L1.40167 19.4697C2.47942 21.5909 4.13528 23.3747 6.18382 24.6213C8.23235 25.8678 10.5927 26.5279 13.0004 26.5276Z" fill="#2BA24C"/>
</svg>
