<svg width="242" height="58" viewBox="0 0 242 58" fill="none" xmlns="http://www.w3.org/2000/svg">
<path d="M65.405 47L56.495 23.24H63.38L68.69 40.34L74.09 23.24H80.75L71.84 47H65.405ZM94.1596 47.675C92.3896 47.675 90.7546 47.375 89.2546 46.775C87.7846 46.145 86.5096 45.275 85.4296 44.165C84.3496 43.025 83.5096 41.69 82.9096 40.16C82.3096 38.6 82.0096 36.905 82.0096 35.075C82.0096 33.305 82.3096 31.655 82.9096 30.125C83.5096 28.595 84.3346 27.275 85.3846 26.165C86.4646 25.025 87.7246 24.14 89.1646 23.51C90.6046 22.88 92.1646 22.565 93.8446 22.565C95.5846 22.565 97.1596 22.865 98.5696 23.465C100.01 24.065 101.24 24.92 102.26 26.03C103.28 27.14 104.06 28.46 104.6 29.99C105.17 31.52 105.455 33.23 105.455 35.12V36.695H88.3996C88.6696 38.465 89.3146 39.86 90.3346 40.88C91.3546 41.87 92.6446 42.365 94.2046 42.365C95.2846 42.365 96.2596 42.11 97.1296 41.6C98.0296 41.09 98.7646 40.355 99.3346 39.395L104.96 41.195C104.42 42.545 103.61 43.7 102.53 44.66C101.45 45.62 100.19 46.37 98.7496 46.91C97.3096 47.42 95.7796 47.675 94.1596 47.675ZM93.8446 27.425C92.4646 27.425 91.2946 27.875 90.3346 28.775C89.4046 29.675 88.7896 30.905 88.4896 32.465H98.9746C98.7346 30.905 98.1496 29.675 97.2196 28.775C96.3196 27.875 95.1946 27.425 93.8446 27.425ZM109.365 47V23.24H115.17L115.35 26.3C116.04 25.16 116.985 24.26 118.185 23.6C119.415 22.91 120.81 22.565 122.37 22.565C124.11 22.565 125.625 22.985 126.915 23.825C128.235 24.635 129.255 25.805 129.975 27.335C130.695 28.865 131.055 30.665 131.055 32.735V47H124.755V33.545C124.755 31.895 124.38 30.605 123.63 29.675C122.88 28.715 121.845 28.235 120.525 28.235C119.565 28.235 118.725 28.46 118.005 28.91C117.285 29.33 116.715 29.93 116.295 30.71C115.875 31.49 115.665 32.375 115.665 33.365V47H109.365ZM145.729 47.675C144.079 47.675 142.654 47.36 141.454 46.73C140.284 46.07 139.369 45.125 138.709 43.895C138.079 42.665 137.764 41.165 137.764 39.395V28.325H133.714V23.24H137.764V15.14H144.064V23.24H150.544V28.325H144.064V38.63C144.064 39.77 144.304 40.655 144.784 41.285C145.264 41.885 145.999 42.185 146.989 42.185C147.499 42.185 148.039 42.11 148.609 41.96C149.209 41.81 149.779 41.615 150.319 41.375L151.444 46.1C150.664 46.58 149.794 46.955 148.834 47.225C147.874 47.525 146.839 47.675 145.729 47.675Z" fill="#5669FF"/>
<path d="M155.561 47V15.05H162.266V27.515H176.396V15.05H183.101V47H176.396V33.455H162.266V47H155.561ZM199.264 47.675C197.104 47.675 195.214 47.225 193.594 46.325C192.004 45.395 190.759 44.09 189.859 42.41C188.989 40.7 188.554 38.69 188.554 36.38V23.24H194.854V36.515C194.854 38.225 195.259 39.575 196.069 40.565C196.879 41.525 197.974 42.005 199.354 42.005C200.734 42.005 201.829 41.525 202.639 40.565C203.449 39.575 203.854 38.225 203.854 36.515V23.24H210.154V36.38C210.154 38.09 209.899 39.635 209.389 41.015C208.879 42.395 208.144 43.58 207.184 44.57C206.224 45.56 205.069 46.325 203.719 46.865C202.399 47.405 200.914 47.675 199.264 47.675ZM215.185 47V13.43H221.485V26.255C222.325 25.115 223.375 24.215 224.635 23.555C225.925 22.895 227.335 22.565 228.865 22.565C230.425 22.565 231.865 22.88 233.185 23.51C234.505 24.14 235.66 25.025 236.65 26.165C237.64 27.275 238.405 28.58 238.945 30.08C239.515 31.58 239.8 33.215 239.8 34.985C239.8 36.785 239.515 38.45 238.945 39.98C238.375 41.51 237.58 42.86 236.56 44.03C235.54 45.17 234.34 46.07 232.96 46.73C231.58 47.36 230.095 47.675 228.505 47.675C226.945 47.675 225.535 47.345 224.275 46.685C223.015 46.025 221.98 45.095 221.17 43.895L220.99 47H215.185ZM227.38 42.005C228.52 42.005 229.54 41.705 230.44 41.105C231.34 40.505 232.045 39.695 232.555 38.675C233.095 37.625 233.365 36.44 233.365 35.12C233.365 33.8 233.095 32.63 232.555 31.61C232.045 30.56 231.34 29.735 230.44 29.135C229.54 28.535 228.52 28.235 227.38 28.235C226.24 28.235 225.22 28.535 224.32 29.135C223.42 29.735 222.7 30.56 222.16 31.61C221.65 32.63 221.395 33.8 221.395 35.12C221.395 36.44 221.65 37.625 222.16 38.675C222.7 39.695 223.42 40.505 224.32 41.105C225.22 41.705 226.24 42.005 227.38 42.005Z" fill="#00F8FF"/>
<path d="M45.2513 30.1323L45.3504 30.1819C47.655 31.4704 48.547 34.3697 47.3328 36.699C43.1202 44.7525 34.6455 50.2536 24.907 50.1793C11.3276 50.0801 0.201484 39.0283 0.00324541 25.4489C-0.219774 11.4235 11.0799 0 25.0805 0C32.9853 0 40.0475 3.66742 44.6318 9.39157L35.6615 14.2484C32.787 11.4483 28.7975 9.76327 24.4362 9.93673C16.4323 10.2589 9.98954 16.8751 9.89042 24.9038C9.7913 33.3785 16.6305 40.2673 25.0557 40.2673C30.9038 40.2673 35.9836 36.9716 38.5112 32.1147C39.7997 29.6863 42.8477 28.7942 45.2513 30.1323Z" fill="#5669FF"/>
<path d="M47.4072 13.6536C48.5223 15.8342 47.7293 18.5105 45.5735 19.6999L40.0723 22.7478L26.4434 30.3057C24.3123 31.4951 21.6361 30.9004 20.1989 28.918L20.1493 28.8437C18.4395 26.4896 19.1829 23.1443 21.76 21.7566L35.6863 14.2236L44.6566 9.3667C45.6974 10.7048 46.6142 12.142 47.4072 13.6536Z" fill="#00F8FF"/>
</svg>
