<?xml version="1.0" standalone="no"?>
<!DOCTYPE svg PUBLIC "-//W3C//DTD SVG 20010904//EN"
 "http://www.w3.org/TR/2001/REC-SVG-20010904/DTD/svg10.dtd">
<svg version="1.0" xmlns="http://www.w3.org/2000/svg"
 width="576.000000pt" height="576.000000pt" viewBox="0 0 576.000000 576.000000"
 preserveAspectRatio="xMidYMid meet">
<metadata>
Created by potrace 1.14, written by Peter Selinger 2001-2017
</metadata>
<g transform="translate(0.000000,576.000000) scale(0.100000,-0.100000)"
fill="#000000" stroke="none">
<path d="M2738 5755 c-1 -2 -32 -5 -68 -9 -80 -6 -227 -28 -280 -40 -14 -3
-36 -8 -50 -10 -53 -9 -231 -57 -321 -87 -111 -37 -333 -130 -337 -141 -2 -4
-9 -8 -16 -8 -17 0 -220 -113 -283 -157 -17 -13 -35 -23 -38 -23 -4 0 -20 -10
-35 -22 -15 -13 -37 -30 -50 -38 -193 -130 -409 -341 -630 -617 -27 -34 -124
-180 -167 -254 -78 -131 -207 -409 -229 -489 -2 -8 -19 -66 -38 -127 -19 -62
-32 -113 -30 -113 2 0 -1 -11 -6 -26 -6 -14 -12 -39 -15 -57 -3 -18 -10 -48
-15 -67 -5 -19 -10 -51 -11 -70 -2 -19 -5 -39 -8 -44 -2 -6 -5 -19 -6 -30 -1
-12 -6 -59 -11 -106 -16 -157 -10 -553 11 -660 3 -13 7 -40 10 -60 30 -200
101 -447 185 -646 119 -278 301 -565 493 -778 129 -142 300 -300 422 -388 5
-4 31 -24 58 -43 26 -19 51 -35 56 -35 5 0 11 -3 13 -7 3 -9 64 -53 72 -53 3
0 29 -15 58 -34 63 -40 221 -122 298 -155 30 -13 71 -31 90 -39 19 -9 40 -17
45 -18 6 -1 48 -16 95 -34 81 -29 311 -93 375 -104 17 -2 55 -9 85 -15 30 -5
78 -13 105 -16 28 -4 70 -9 95 -13 59 -8 531 -7 595 2 86 11 117 16 232 36
107 19 149 29 273 65 30 9 62 17 70 20 25 6 202 72 250 93 123 54 186 85 192
96 4 6 8 7 8 3 0 -5 15 0 33 11 17 11 48 28 67 39 19 10 54 31 77 46 24 15 47
27 52 27 5 0 11 3 13 8 2 4 29 25 61 46 77 51 247 186 321 256 93 87 221 223
271 286 17 21 38 47 47 58 29 34 118 157 118 162 0 3 18 32 40 64 22 32 40 63
40 69 0 5 3 11 8 13 19 8 89 154 107 225 89 336 -182 678 -545 688 -221 5
-399 -104 -528 -326 -112 -193 -239 -346 -392 -474 -86 -71 -204 -155 -219
-155 -5 0 -11 -4 -13 -8 -4 -11 -169 -94 -248 -125 -71 -28 -225 -74 -274 -82
-17 -3 -42 -8 -56 -10 -14 -3 -36 -8 -50 -10 -140 -27 -402 -23 -590 10 -52 9
-233 57 -245 64 -5 4 -28 13 -50 20 -118 40 -304 142 -433 238 -72 54 -235
209 -292 278 -72 87 -170 233 -170 253 0 7 -3 12 -8 12 -4 0 -14 15 -21 32 -8
18 -27 60 -42 93 -23 52 -37 86 -44 105 -1 3 -4 12 -8 20 -14 36 -49 159 -58
205 -5 28 -11 61 -14 75 -22 112 -29 415 -11 505 3 17 9 46 12 65 7 39 15 80
18 95 2 6 6 24 10 40 42 168 129 360 236 518 168 249 384 440 650 576 107 55
320 138 320 124 0 -3 6 -1 13 5 6 5 26 12 42 15 17 3 53 10 80 16 173 36 437
43 585 16 14 -3 41 -7 60 -10 151 -24 331 -85 483 -162 94 -48 262 -153 277
-172 3 -4 14 -14 26 -22 29 -19 114 -96 114 -102 0 -3 -12 -12 -27 -19 -24
-12 -93 -49 -335 -178 -26 -14 -91 -48 -145 -76 -54 -28 -116 -62 -138 -74
-22 -12 -83 -45 -135 -73 -52 -27 -117 -62 -145 -77 -27 -15 -88 -48 -135 -72
-121 -64 -291 -155 -385 -205 -44 -24 -105 -56 -135 -71 -30 -15 -87 -58 -126
-97 -229 -225 -220 -573 19 -792 121 -110 273 -157 452 -139 75 8 135 33 320
136 17 9 59 32 95 51 36 18 68 37 71 42 3 5 12 9 20 10 8 2 19 5 24 9 6 3 26
15 45 26 19 11 63 35 97 55 34 19 64 33 67 29 3 -3 6 0 6 6 0 7 4 12 9 12 5 0
58 27 117 60 59 33 111 60 115 60 3 0 12 7 19 15 7 9 15 13 18 11 3 -3 17 3
32 14 16 11 30 20 33 20 3 0 36 17 74 38 37 22 100 56 138 77 39 21 93 50 120
65 28 15 76 42 108 59 81 44 155 84 207 113 79 44 263 144 345 188 44 24 85
46 90 50 6 4 55 31 110 60 113 60 167 96 208 137 46 46 77 87 77 101 0 6 3 12
8 12 7 0 32 47 32 61 0 4 5 20 11 36 16 38 22 85 22 161 0 64 -20 169 -35 178
-4 3 -8 14 -8 25 0 10 -4 19 -8 19 -4 0 -13 12 -19 28 -14 33 -68 127 -94 164
-10 14 -19 29 -19 32 0 6 -39 65 -50 76 -3 3 -25 34 -50 70 -24 36 -49 70 -55
76 -5 6 -35 40 -65 75 -109 128 -355 363 -439 419 -13 8 -33 23 -44 34 -23 19
-208 144 -242 162 -11 6 -38 21 -60 34 -53 30 -200 103 -250 125 -22 9 -49 21
-60 26 -115 51 -388 135 -503 155 -15 3 -34 7 -42 9 -8 3 -32 7 -54 11 -21 3
-46 7 -55 9 -9 2 -44 6 -76 10 -33 4 -71 9 -85 12 -28 6 -496 13 -502 8z"/>
</g>
</svg>
